<svg width="124" height="80" viewBox="0 0 124 80" fill="none"
  xmlns="http://www.w3.org/2000/svg">
  <path d="M84.0194 25.62V25.62C83.5422 26.105 82.7561 25.7729 82.7561 25.0926V25.0926C82.7561 24.4715 82.7561 23.7867 82.7266 23.1401C81.9914 -3.71337 41.7958 -3.71337 41.0607 23.1401C41.0438 23.7867 41.0354 24.4375 41.0354 25.0926V25.0926C41.0354 25.7495 40.2372 26.0839 39.7721 25.62V25.62C39.3158 25.1649 38.8426 24.7012 38.3779 24.2588C18.9814 5.79361 -9.42249 34.4336 8.91353 53.9198C9.35855 54.3905 9.81061 54.8584 10.2697 55.3235C32.3935 77.5981 61.8885 77.6 61.8936 77.6C61.8938 77.6 61.8935 77.6 61.8936 77.6C61.8987 77.6 91.3979 77.5981 113.522 55.3235C113.984 54.8612 114.436 54.3933 114.878 53.9198C133.214 34.4124 104.793 5.79361 85.4136 24.2588C84.9446 24.7012 84.4672 25.1564 84.0194 25.62Z" fill="#FFEBB8" stroke="#FFEBB8" stroke-width="4.64092" stroke-miterlimit="10"/>
  <path fill-rule="evenodd" clip-rule="evenodd" d="M78.982 45.803V45.803C78.3597 45.803 78.1445 46.7078 78.5413 47.1871C79.2441 48.036 79.667 49.1283 79.667 50.3199C79.667 53.0239 77.4898 55.2159 74.8042 55.2159C72.1185 55.2159 69.9413 53.0239 69.9413 50.3199V50.3199C69.9413 50.1753 69.7539 50.1034 69.6691 50.2206C68.9021 51.2812 68.3844 52.4718 68.1716 53.722C68.0518 54.426 67.4835 55.009 66.7693 55.009H66.3749C65.4429 55.009 64.6739 54.2483 64.8115 53.3265C65.7545 47.0094 71.9384 42.4277 78.982 42.4277C86.0255 42.4277 92.2095 47.0094 93.1524 53.3265C93.29 54.2483 92.5211 55.009 91.589 55.009V55.009C90.657 55.009 89.9189 54.2445 89.7163 53.3347C88.7943 49.194 84.5205 45.803 78.982 45.803ZM35.7997 50.3199C35.7997 50.1291 35.5541 50.0268 35.4385 50.1786C34.6185 51.2557 34.0599 52.4755 33.8235 53.7611C33.6839 54.5206 33.0703 55.1516 32.2981 55.1516H32.0087C31.0767 55.1516 30.3077 54.3909 30.4452 53.4691C31.3877 47.1485 37.5723 42.5703 44.6158 42.5703C51.6592 42.5703 57.8438 47.1485 58.7864 53.4691C58.9238 54.3909 58.1549 55.1516 57.2228 55.1516V55.1516C56.2908 55.1516 55.5527 54.3871 55.3503 53.4773C54.4289 49.3341 50.1551 45.9455 44.6158 45.9455V45.9455C44.1123 45.9455 43.928 46.6572 44.2651 47.0312C45.0482 47.9003 45.5254 49.054 45.5254 50.3199C45.5254 53.0239 43.3482 55.2159 40.6626 55.2159C37.9769 55.2159 35.7997 53.0239 35.7997 50.3199V50.3199ZM69.7977 61.5939C68.9797 61.147 67.9617 61.4675 67.303 62.1269C66.0331 63.3979 64.1081 64.2663 61.8802 64.2663C59.6466 64.2663 57.7237 63.4067 56.4566 62.1347C55.7988 61.4744 54.7823 61.1499 53.9628 61.5939V61.5939C53.1433 62.0378 52.8292 63.0745 53.4165 63.7982C55.3388 66.1671 58.454 67.6415 61.8802 67.6415C65.3084 67.6415 68.4167 66.1516 70.3365 63.8002C70.9259 63.0782 70.6156 62.0407 69.7977 61.5939V61.5939Z" fill="#383F3A"/>
</svg>
